<svg width="400" height="300" viewBox="0 0 400 300" fill="none" xmlns="http://www.w3.org/2000/svg">
  <!-- Empty state illustration for no apartments found -->
  <defs>
    <linearGradient id="buildingGradient" x1="0%" y1="0%" x2="100%" y2="100%">
      <stop offset="0%" style="stop-color:#D4A574;stop-opacity:1" />
      <stop offset="100%" style="stop-color:#B8895E;stop-opacity:1" />
    </linearGradient>
  </defs>
  
  <!-- Background circle -->
  <circle cx="200" cy="150" r="120" fill="#F5E6D3" opacity="0.5"/>
  
  <!-- Building outline -->
  <rect x="140" y="80" width="120" height="160" rx="4" fill="url(#buildingGradient)" opacity="0.3"/>
  <rect x="150" y="90" width="100" height="140" rx="2" fill="none" stroke="#7D1935" stroke-width="2" stroke-dasharray="4 4"/>
  
  <!-- Windows -->
  <rect x="165" y="105" width="20" height="20" rx="2" fill="#A69A8E" opacity="0.4"/>
  <rect x="215" y="105" width="20" height="20" rx="2" fill="#A69A8E" opacity="0.4"/>
  <rect x="165" y="140" width="20" height="20" rx="2" fill="#A69A8E" opacity="0.4"/>
  <rect x="215" y="140" width="20" height="20" rx="2" fill="#A69A8E" opacity="0.4"/>
  <rect x="165" y="175" width="20" height="20" rx="2" fill="#A69A8E" opacity="0.4"/>
  <rect x="215" y="175" width="20" height="20" rx="2" fill="#A69A8E" opacity="0.4"/>
  
  <!-- Door -->
  <rect x="185" y="200" width="30" height="30" rx="2" fill="#7D1935" opacity="0.3"/>
  
  <!-- Search icon overlay -->
  <circle cx="280" cy="100" r="30" fill="#FAF7F2" stroke="#7D1935" stroke-width="3"/>
  <circle cx="280" cy="100" r="18" fill="none" stroke="#7D1935" stroke-width="3"/>
  <line x1="293" y1="113" x2="305" y2="125" stroke="#7D1935" stroke-width="3" stroke-linecap="round"/>
  <line x1="273" y1="100" x2="287" y2="100" stroke="#7D1935" stroke-width="2" stroke-linecap="round" opacity="0.5"/>
</svg>
